<svg id="visual" viewBox="0 0 3440 1440" width="3440" height="1440" xmlns="http://www.w3.org/2000/svg" xmlns:xlink="http://www.w3.org/1999/xlink" version="1.1"><path d="M0 332L71.7 375.2C143.3 418.3 286.7 504.7 430 535.8C573.3 567 716.7 543 860 521.5C1003.3 500 1146.7 481 1290 442.7C1433.3 404.3 1576.7 346.7 1720 344.2C1863.3 341.7 2006.7 394.3 2150 435.2C2293.3 476 2436.7 505 2580 471.5C2723.3 438 2866.7 342 3010 310.8C3153.3 279.7 3296.7 313.3 3368.3 330.2L3440 347L3440 0L3368.3 0C3296.7 0 3153.3 0 3010 0C2866.7 0 2723.3 0 2580 0C2436.7 0 2293.3 0 2150 0C2006.7 0 1863.3 0 1720 0C1576.7 0 1433.3 0 1290 0C1146.7 0 1003.3 0 860 0C716.7 0 573.3 0 430 0C286.7 0 143.3 0 71.7 0L0 0Z" fill="#9a94ff"></path><path d="M0 462L71.7 517.2C143.3 572.3 286.7 682.7 430 733C573.3 783.3 716.7 773.7 860 737.7C1003.3 701.7 1146.7 639.3 1290 577C1433.3 514.7 1576.7 452.3 1720 459.5C1863.3 466.7 2006.7 543.3 2150 591.3C2293.3 639.3 2436.7 658.7 2580 625.2C2723.3 591.7 2866.7 505.3 3010 464.5C3153.3 423.7 3296.7 428.3 3368.3 430.7L3440 433L3440 345L3368.3 328.2C3296.7 311.3 3153.3 277.7 3010 308.8C2866.7 340 2723.3 436 2580 469.5C2436.7 503 2293.3 474 2150 433.2C2006.7 392.3 1863.3 339.7 1720 342.2C1576.7 344.7 1433.3 402.3 1290 440.7C1146.7 479 1003.3 498 860 519.5C716.7 541 573.3 565 430 533.8C286.7 502.7 143.3 416.3 71.7 373.2L0 330Z" fill="#847cff"></path><path d="M0 851L71.7 865.3C143.3 879.7 286.7 908.3 430 925C573.3 941.7 716.7 946.3 860 946.3C1003.3 946.3 1146.7 941.7 1290 884.2C1433.3 826.7 1576.7 716.3 1720 718.7C1863.3 721 2006.7 836 2150 910.3C2293.3 984.7 2436.7 1018.3 2580 956C2723.3 893.7 2866.7 735.3 3010 675.3C3153.3 615.3 3296.7 653.7 3368.3 672.8L3440 692L3440 431L3368.3 428.7C3296.7 426.3 3153.3 421.7 3010 462.5C2866.7 503.3 2723.3 589.7 2580 623.2C2436.7 656.7 2293.3 637.3 2150 589.3C2006.7 541.3 1863.3 464.7 1720 457.5C1576.7 450.3 1433.3 512.7 1290 575C1146.7 637.3 1003.3 699.7 860 735.7C716.7 771.7 573.3 781.3 430 731C286.7 680.7 143.3 570.3 71.7 515.2L0 460Z" fill="#6c63ff"></path><path d="M0 1340L71.7 1328C143.3 1316 286.7 1292 430 1284.8C573.3 1277.7 716.7 1287.3 860 1294.5C1003.3 1301.7 1146.7 1306.3 1290 1282.3C1433.3 1258.3 1576.7 1205.7 1720 1198.5C1863.3 1191.3 2006.7 1229.7 2150 1256C2293.3 1282.3 2436.7 1296.7 2580 1277.5C2723.3 1258.3 2866.7 1205.7 3010 1181.7C3153.3 1157.7 3296.7 1162.3 3368.3 1164.7L3440 1167L3440 690L3368.3 670.8C3296.7 651.7 3153.3 613.3 3010 673.3C2866.7 733.3 2723.3 891.7 2580 954C2436.7 1016.3 2293.3 982.7 2150 908.3C2006.7 834 1863.3 719 1720 716.7C1576.7 714.3 1433.3 824.7 1290 882.2C1146.7 939.7 1003.3 944.3 860 944.3C716.7 944.3 573.3 939.7 430 923C286.7 906.3 143.3 877.7 71.7 863.3L0 849Z" fill="#5d51e1"></path><path d="M0 1441L71.7 1441C143.3 1441 286.7 1441 430 1441C573.3 1441 716.7 1441 860 1441C1003.3 1441 1146.7 1441 1290 1441C1433.3 1441 1576.7 1441 1720 1441C1863.3 1441 2006.7 1441 2150 1441C2293.3 1441 2436.7 1441 2580 1441C2723.3 1441 2866.7 1441 3010 1441C3153.3 1441 3296.7 1441 3368.3 1441L3440 1441L3440 1165L3368.3 1162.7C3296.7 1160.3 3153.3 1155.7 3010 1179.7C2866.7 1203.7 2723.3 1256.3 2580 1275.5C2436.7 1294.7 2293.3 1280.3 2150 1254C2006.7 1227.7 1863.3 1189.3 1720 1196.5C1576.7 1203.7 1433.3 1256.3 1290 1280.3C1146.7 1304.3 1003.3 1299.7 860 1292.5C716.7 1285.3 573.3 1275.7 430 1282.8C286.7 1290 143.3 1314 71.7 1326L0 1338Z" fill="#4d40c4"></path></svg>